<svg width="184" height="48" viewBox="0 0 184 48" fill="none" xmlns="http://www.w3.org/2000/svg">
<path fill-rule="evenodd" clip-rule="evenodd" d="M19.4907 22.004C20.5879 23.4838 20.717 25.9287 18.9744 27.6015C17.2319 29.2744 14.5857 29.2744 12.8432 27.5371C11.7461 26.4434 10.2616 23.6125 10.1971 21.4893C10.1325 20.7172 10.1971 20.0094 10.4553 19.4948C10.4553 19.4948 10.5843 20.2669 11.0362 21.1676C11.4879 22.197 12.1979 23.2908 12.9723 24.1272C13.3595 24.5132 13.7467 24.835 14.0695 24.8993C15.1666 25.2853 15.9411 24.5132 15.9411 24.4489C15.9411 24.4489 16.3929 24.0628 16.5219 23.4195C16.5864 23.0977 16.5219 22.7117 16.3283 22.2614C16.1992 21.8754 15.4247 21.1032 14.5212 20.5242C13.9404 20.1381 13.2305 19.7521 12.9078 19.6234C12.0042 19.1731 11.0362 18.9158 11.0362 18.9158C11.4879 18.6583 12.1333 18.594 12.7787 18.6583C15.5538 18.9801 18.329 20.4599 19.4907 22.004ZM36.3999 19.8164C36.2708 19.8164 36.0771 19.8164 35.8835 19.8164C35.6254 19.8164 35.2382 19.7521 34.98 19.5591C34.7863 19.4304 34.6573 19.3018 34.5283 19.1731C34.0764 18.7871 33.4955 18.5296 32.9147 18.594C31.1722 18.9158 29.4296 20.9102 28.397 23.0977C27.8162 24.3845 27.6226 25.5426 27.558 26.4434C27.4935 27.3441 27.4935 28.1162 28.0098 28.6309C28.5261 29.1456 29.3005 29.1456 30.2042 29.0813C31.1077 29.0169 32.2694 28.8239 33.5601 28.2449C35.6899 27.2798 37.7551 25.4783 38.0778 23.7412C38.2069 23.1622 37.9487 22.583 37.497 22.1327C37.3679 21.9397 37.2388 21.8754 37.1098 21.6824C36.9161 21.3606 36.8516 21.0389 36.8516 20.7816C36.8516 20.5886 36.8516 20.3956 36.8516 20.2669C36.8516 20.1381 36.787 20.0738 36.7225 19.9451C36.5935 19.8808 36.5289 19.8164 36.3999 19.8164ZM25.3637 19.5591C24.6538 20.7172 24.2665 21.8754 24.202 22.3257C23.5566 25.2853 25.1055 29.21 28.5261 30.3681C31.0431 31.4619 32.3339 32.813 33.1084 33.9711C33.7537 34.8718 34.0119 35.9656 34.9154 36.6734C35.4318 37.0594 36.0771 37.3167 37.0452 37.3167C38.8523 37.3167 40.0785 36.0299 41.1111 34.2285C41.692 33.1347 42.4665 31.6549 42.9183 30.4324C43.8864 27.7302 43.8864 26.0573 43.9509 24.0628C43.9509 18.4653 41.9502 13.6399 38.2715 9.9726C34.5927 6.30524 29.6878 4.05337 24.0729 4.05337C18.4581 4.05337 13.8113 6.30524 10.0035 9.84393C6.26025 13.5112 4.06594 18.3366 4.06594 23.9342C4.06594 31.0115 7.55103 36.5446 12.585 40.212C15.1666 42.0778 21.2332 44.4584 25.1055 43.7506C26.3318 43.4933 28.3325 42.1421 29.0425 40.4693C30.1396 37.8957 29.5587 35.0005 26.0091 32.813C23.7503 31.3975 22.1368 28.0519 21.8141 25.7357C21.6205 24.3845 21.6205 23.0977 21.8141 22.0684C22.0077 20.9746 22.524 19.6878 22.7177 19.0444C22.524 18.7227 22.3949 18.401 22.2659 18.015C21.9431 17.1786 21.6205 16.0205 21.685 14.6694C21.685 12.2888 22.524 9.71526 23.9438 8.75013C24.8474 8.17108 26.3318 8.55711 26.7836 9.5865C26.8481 9.84393 27.0418 10.1013 27.1708 10.2299L27.2353 10.2943C27.2353 10.2943 27.2998 10.2943 27.3644 10.2943C27.558 10.2943 27.8162 10.2299 28.0744 10.1013C29.107 9.5865 30.4622 10.2943 30.7204 11.3237C31.1722 13.0609 30.0105 15.5057 28.4615 17.3073C27.558 18.3366 26.5254 18.9801 25.751 19.4304C25.6864 19.4304 25.4928 19.4948 25.3637 19.5591ZM24.0084 0C30.6559 0 36.658 2.70224 40.982 7.01297C45.3061 11.3237 48.0168 17.3073 48.0168 23.9342C48.0168 30.5611 45.3061 36.5446 40.982 40.8554C36.658 45.1661 30.6559 47.8683 24.0084 47.8683C17.3609 47.8683 11.3588 45.1661 7.03472 40.8554C2.71062 36.5446 0 30.5611 0 23.9342C0 17.3073 2.71062 11.3237 7.03472 7.01297C11.3588 2.70224 17.3609 0 24.0084 0ZM23.6212 32.8773C25.2992 33.585 26.59 35.7083 25.8801 38.0244C25.2346 40.3407 22.8468 41.6275 20.4588 40.984C18.9098 40.5337 16.3283 38.7965 15.1666 36.9951C14.6503 36.2229 14.2631 35.4509 14.5212 34.7431C14.7148 34.0998 15.3603 33.585 16.1347 33.2633C18.7162 32.1052 21.8786 32.1052 23.6212 32.8773Z" fill="#03A3A2"/>
<path fill-rule="evenodd" clip-rule="evenodd" d="M130.304 20.3312V24.1273C130.304 24.1273 128.949 25.0923 127.464 25.0923C126.044 25.0923 125.27 23.9986 125.463 22.9048C125.722 21.2963 127.4 20.2025 128.949 20.3312C129.4 20.3312 130.304 20.3312 130.304 20.3312ZM66.9268 20.3312V24.1273C66.9268 24.1273 65.5715 25.0923 64.0871 25.0923C62.6673 25.0923 61.8927 23.9986 62.0864 22.9048C62.3445 21.2963 64.0225 20.2025 65.5715 20.3312C66.0233 20.3312 66.9268 20.3312 66.9268 20.3312ZM60.4729 16.7926L59.634 15.3128C59.634 15.3128 61.8282 13.833 64.1516 13.833C66.475 13.833 67.5722 14.026 68.7984 14.9911C70.0247 15.9561 70.1538 17.3716 70.1538 17.3716V27.1512C70.1538 27.1512 68.9921 27.4085 68.1531 26.9582C67.3785 26.5077 67.185 25.9931 67.185 25.9931C67.185 25.9931 65.8942 27.2155 63.6999 27.2155C61.5056 27.2155 59.2467 26.4434 59.0531 23.4195C58.7949 20.1382 62.3445 18.5941 65.1197 18.7227C66.0877 18.7871 66.9914 18.8514 66.9914 18.8514C66.9914 18.8514 67.2494 17.5646 66.475 16.6639C65.7006 15.7631 63.829 15.8918 63.119 16.0205C62.3445 16.0848 60.4729 16.7926 60.4729 16.7926ZM82.0934 15.2484L81.2544 16.7282C79.77 16.0848 75.704 15.1198 75.2523 17.3073C75.1878 17.6933 75.1232 18.5297 77.6403 19.1731C80.1572 19.8165 82.4161 20.5885 82.8033 23.0978C83.2551 25.6071 80.4799 26.7651 79.5119 27.0869C78.5438 27.4085 75.8331 27.4085 74.6069 26.9582C73.3807 26.5077 71.8963 25.4784 71.8963 25.4784L72.7353 23.9986C74.0261 24.8349 79.1246 26.2504 79.5119 23.9986C79.6409 23.0978 79.5764 22.6475 77.253 21.8753C74.9296 21.1033 71.8317 20.3955 71.9608 17.4359C72.1545 13.0609 78.6083 13.64 80.7381 14.605C81.9644 14.9911 82.0934 15.2484 82.0934 15.2484ZM84.6104 13.9616V27.0225H87.7082V20.3312L92.5487 27.0225H96.0979L91.0643 20.0095L95.582 14.219H91.8387L87.7728 19.6878V15.1841C87.7728 15.1841 87.5146 14.5407 86.9984 14.219C86.482 13.8973 86.2239 13.9616 86.2239 13.9616H84.6104ZM101.713 15.9561C103.907 15.9561 104.618 18.0794 104.618 20.6529C104.618 23.2265 103.907 25.3496 101.713 25.3496C99.5192 25.3496 98.8091 23.2265 98.8091 20.6529C98.7449 18.0794 99.5192 15.9561 101.713 15.9561ZM101.713 13.9616C106.166 13.9616 107.715 16.9212 107.715 20.6529C107.715 24.3203 106.231 27.3442 101.713 27.3442C97.1952 27.3442 95.7111 24.3846 95.7111 20.6529C95.7111 16.9212 97.1952 13.9616 101.713 13.9616ZM109.522 14.1547V13.9616H111.007C111.007 13.9616 111.265 13.8973 111.781 14.219C112.104 14.412 112.362 14.7337 112.427 14.9911C112.749 14.798 113.459 14.3477 113.782 14.219C114.233 14.026 115.201 13.9616 115.718 13.9616C116.234 13.9616 117.783 13.9616 119.203 15.1841C120.623 16.4065 120.494 17.9506 120.494 17.9506V27.0225H117.461V18.3367C117.461 18.3367 117.461 17.8219 117.202 17.4359C117.009 16.9856 116.557 16.3421 115.073 16.2778C113.588 16.2135 112.555 16.8569 112.555 16.8569V27.0225H109.458L109.522 14.1547ZM123.915 16.7926L123.011 15.3128C123.011 15.3128 125.205 13.833 127.464 13.833C129.787 13.833 130.884 14.026 132.111 14.9911C133.337 15.9561 133.466 17.3716 133.466 17.3716V27.1512C133.466 27.1512 132.305 27.4085 131.465 26.9582C130.691 26.5077 130.497 25.9931 130.497 25.9931C130.497 25.9931 129.206 27.2155 127.013 27.2155C124.818 27.2155 122.559 26.4434 122.366 23.4195C122.107 20.1382 125.657 18.5941 128.432 18.7227C129.4 18.7871 130.304 18.8514 130.304 18.8514C130.304 18.8514 130.562 17.5646 129.787 16.6639C129.013 15.7631 127.141 15.8918 126.431 16.0205C125.722 16.0848 123.915 16.7926 123.915 16.7926Z" fill="#03A3A2"/>
<path fill-rule="evenodd" clip-rule="evenodd" d="M184 27.2798V14.4119V10.809C184 10.616 184 9.90818 183.936 9.77951C183.807 9.00746 183.226 8.2354 182.386 8.17105H180.902V14.6049C180.063 14.1546 179.03 13.9616 177.804 13.9616C173.351 13.9616 171.802 16.9212 171.802 20.6528C171.802 24.3202 173.287 27.3441 177.804 27.3441C179.224 27.3441 180.321 27.0225 181.225 26.5077C181.484 26.8938 182.064 27.3441 182.58 27.4085L184 27.2798ZM177.804 15.8917C179.999 15.8917 180.708 18.015 180.708 20.5885C180.708 23.1621 179.999 25.2852 177.804 25.2852C175.61 25.2852 174.9 23.1621 174.9 20.5885C174.836 17.9506 175.61 15.8917 177.804 15.8917ZM162.315 26.9581C163.283 27.2798 165.865 27.2798 167.026 26.8295C168.189 26.4433 169.801 25.2852 169.801 25.2852L168.963 23.8055C168.963 23.8055 168.123 24.3202 167.091 24.7062C166.511 24.8992 165.994 24.9635 165.542 24.9635C162.896 25.0922 161.283 24.8349 160.96 20.9102H166.768H169.091H169.801C169.801 20.7816 169.801 20.6528 169.801 20.5241C169.801 16.8569 168.253 13.8329 163.799 13.8329C159.346 13.8329 157.797 16.7925 157.797 20.5241C157.797 20.6528 157.797 20.7816 157.797 20.9102C157.991 23.4194 158.378 24.8349 159.669 25.8643C160.508 26.5077 161.218 26.8295 162.315 26.9581ZM166.704 19.173C166.445 17.2429 165.607 15.8917 163.864 15.8917C162.057 15.8917 161.283 17.3072 161.024 19.173H166.704ZM148.246 16.6638C148.633 16.4708 149.472 16.1491 150.504 16.2134C151.989 16.2778 152.44 16.9212 152.634 17.3715C152.827 17.822 152.893 18.2723 152.893 18.2723V27.0225H155.99V17.8863C155.99 17.8863 156.119 16.3422 154.699 15.1197C153.28 13.8972 151.731 13.8972 151.215 13.8972C150.698 13.8972 149.73 14.0259 149.279 14.1546C148.891 14.2833 147.794 14.991 147.342 15.2484C147.278 15.184 147.213 15.184 147.213 15.1197C145.793 13.8972 144.245 13.8972 143.728 13.8972C143.212 13.8972 142.244 14.0259 141.792 14.1546C141.34 14.3476 140.243 15.0554 140.243 15.0554C139.985 14.6693 139.404 14.1546 138.888 14.1546H137.403V27.0225H140.501V16.7925C140.501 16.7925 141.533 16.1491 143.018 16.2134C144.502 16.2778 144.954 16.9212 145.147 17.3715C145.341 17.822 145.406 18.2723 145.406 18.2723V27.0225H148.503V17.8863C148.439 17.8863 148.503 17.3715 148.246 16.6638Z" fill="#BD1E5A"/>
<path d="M76.3496 37.3812H76.9304C77.3822 37.3812 77.7048 37.3169 77.8984 37.1882C78.0921 37.0594 78.1566 36.8664 78.1566 36.5447C78.1566 36.2874 78.0921 36.0301 77.8984 35.9014C77.8339 35.8371 77.7048 35.7727 77.5757 35.7727C77.4467 35.7727 77.2531 35.7727 76.8658 35.7727H76.285V37.3812H76.3496ZM75.5105 38.0245V33.3278H76.3496V35.1293H76.9949C77.7693 35.1293 78.2857 35.2579 78.6083 35.4509C78.9311 35.644 79.1247 36.0301 79.1247 36.5447C79.1247 37.0594 78.9311 37.4455 78.6083 37.7029C78.2212 37.9602 77.7048 38.0889 76.8658 38.0889H75.5105V38.0245ZM71.2509 38.0245V33.9711H69.3148V33.3278H74.0261V33.9711H72.0899V38.0245H71.2509ZM65.1843 35.2579H67.4432V35.1293C67.4432 34.2929 67.0559 33.8425 66.346 33.8425C66.0233 33.8425 65.7006 33.9711 65.507 34.2286C65.378 34.4859 65.2489 34.8076 65.1843 35.2579ZM68.4113 37.8315C67.8304 38.0245 67.2495 38.1532 66.7977 38.1532C65.9588 38.1532 65.378 37.9602 64.9261 37.5099C64.4744 37.1238 64.2808 36.4804 64.2808 35.7084C64.2808 35.0006 64.4744 34.3573 64.9261 33.9068C65.378 33.4565 65.8942 33.1991 66.5397 33.1991C67.185 33.1991 67.7014 33.3921 67.9594 33.7781C68.2822 34.1642 68.4113 34.8076 68.4113 35.5796V35.8371H65.1843C65.2489 36.9307 65.8297 37.4455 66.9268 37.4455C67.3786 37.4455 67.8949 37.3169 68.4758 37.1239V37.8315H68.4113ZM63.0545 37.8959C62.5382 38.0889 62.0219 38.1532 61.5056 38.1532C60.6666 38.1532 60.0212 37.9602 59.5694 37.5099C59.1177 37.0594 58.9241 36.4804 58.9241 35.7084C58.9241 34.9363 59.1177 34.3573 59.5694 33.9068C60.0212 33.4565 60.602 33.2635 61.3765 33.2635C61.8928 33.2635 62.4092 33.3278 62.8609 33.5208V34.2286C62.2801 34.0355 61.8283 33.9068 61.441 33.9068C60.9248 33.9068 60.5375 34.0999 60.2148 34.4216C59.8921 34.7433 59.7631 35.1936 59.7631 35.7727C59.7631 36.3517 59.8921 36.8021 60.2148 37.1239C60.5375 37.4455 60.9893 37.6385 61.5056 37.6385C61.8928 37.6385 62.4091 37.5742 62.9255 37.3169V37.8959H63.0545Z" fill="#BD1E5A"/>
<path d="M137.984 38.0245L139.726 35.644L137.984 33.3278H139.081L140.372 35.0649L141.598 33.3278H142.437L140.823 35.644L142.631 38.0245H141.533L140.178 36.2231L138.823 38.0245H137.984ZM132.95 38.0245V33.3278H133.789V36.8021L136.112 33.3278H136.886V38.0245H136.112V34.5503L133.853 38.0245H132.95ZM128.755 36.0301V38.0245H127.915V33.3278H128.755V35.3866H128.948C129.206 35.3866 129.4 35.3223 129.529 35.2579C129.659 35.1936 129.787 34.9363 129.981 34.5503L130.046 34.3573C130.239 33.9068 130.433 33.6495 130.627 33.5208C130.82 33.3921 131.078 33.3278 131.401 33.3278V33.9711C131.207 33.9711 131.078 34.0355 131.014 34.0999C130.949 34.1642 130.82 34.3573 130.691 34.6789L130.627 34.8719L130.497 35.1293C130.368 35.3866 130.174 35.5796 129.852 35.7727C130.11 35.8371 130.304 35.9657 130.368 36.0944C130.497 36.2231 130.627 36.4804 130.884 36.8664L131.078 37.1882C131.271 37.5742 131.465 37.8959 131.594 38.0889H130.627C130.562 37.8959 130.433 37.7672 130.368 37.5742L130.11 37.1882C129.787 36.6734 129.529 36.2874 129.336 36.0944H128.755V36.0301ZM126.303 37.8959C125.786 38.0889 125.269 38.1532 124.754 38.1532C123.914 38.1532 123.269 37.9602 122.817 37.5099C122.366 37.0594 122.172 36.4804 122.172 35.7084C122.172 34.9363 122.366 34.3573 122.817 33.9068C123.269 33.4565 123.85 33.2635 124.624 33.2635C125.141 33.2635 125.657 33.3278 126.109 33.5208V34.2286C125.528 34.0355 125.076 33.9068 124.689 33.9068C124.172 33.9068 123.785 34.0999 123.463 34.4216C123.14 34.7433 123.011 35.1936 123.011 35.7727C123.011 36.3517 123.14 36.8021 123.463 37.1239C123.785 37.4455 124.237 37.6385 124.754 37.6385C125.141 37.6385 125.657 37.5742 126.173 37.3169V37.8959H126.303ZM117.655 35.2579H119.913V35.1293C119.913 34.2929 119.526 33.8425 118.816 33.8425C118.493 33.8425 118.17 33.9711 117.977 34.2286C117.783 34.4859 117.719 34.8076 117.655 35.2579ZM120.881 37.8315C120.3 38.0245 119.72 38.1532 119.267 38.1532C118.429 38.1532 117.848 37.9602 117.396 37.5099C116.944 37.1238 116.751 36.4804 116.751 35.7084C116.751 35.0006 116.944 34.3573 117.396 33.9068C117.848 33.4565 118.364 33.1991 119.01 33.1991C119.655 33.1991 120.171 33.3921 120.429 33.7781C120.752 34.1642 120.881 34.8076 120.881 35.5796V35.8371H117.655C117.719 36.9307 118.299 37.4455 119.397 37.4455C119.848 37.4455 120.365 37.3169 120.945 37.1239V37.8315H120.881ZM114.169 38.0245V36.0301C113.653 36.2874 113.265 36.3517 112.878 36.3517C112.362 36.3517 111.91 36.2231 111.587 35.9014C111.458 35.7727 111.33 35.5796 111.264 35.3223C111.2 35.1293 111.2 34.8076 111.2 34.3573V33.2635H112.04V34.4859C112.04 34.8076 112.04 35.0006 112.104 35.1293C112.104 35.2579 112.168 35.3223 112.297 35.4509C112.491 35.644 112.749 35.7084 113.072 35.7084C113.395 35.7084 113.718 35.5796 114.169 35.3223V33.2635H115.008V37.9602H114.169V38.0245ZM106.038 38.0245V33.3278H106.876V36.8021L109.199 33.3278H109.974V38.0245H109.199V34.5503L106.94 38.0245H106.038ZM100.745 38.0245V33.3278H101.584V35.2579H103.714V33.3278H104.553V38.0245H103.714V35.8371H101.584V38.0245H100.745ZM95.2591 38.0245V33.3278H96.0978V36.8021L98.4217 33.3278H99.1961V38.0245H98.4217V34.5503L96.1629 38.0245H95.2591ZM89.3861 38.0245V37.3812C89.6443 37.3812 89.7733 37.3169 89.9024 37.1882C90.0315 37.0594 90.096 36.8664 90.2251 36.6091C90.4188 35.9014 90.5479 34.9363 90.5479 33.7781V33.3278H93.7102V38.0245H92.8713V33.9711H91.3868V34.0355C91.3868 35.3866 91.2577 36.3517 90.935 37.0594C90.6124 37.7029 90.096 38.0245 89.3861 38.0245ZM85.7074 36.0301V38.0245H84.8684V33.3278H85.7074V35.3866H85.901C86.1592 35.3866 86.3528 35.3223 86.4819 35.2579C86.6109 35.1936 86.74 34.9363 86.9336 34.5503L86.9982 34.3573C87.1918 33.9068 87.3855 33.6495 87.5791 33.5208C87.7726 33.3921 88.0308 33.3278 88.3535 33.3278V33.9711C88.1599 33.9711 88.0308 34.0355 87.9663 34.0999C87.9017 34.1642 87.7726 34.3573 87.6435 34.6789L87.5791 34.8719L87.45 35.1293C87.3209 35.3866 87.1273 35.5796 86.8046 35.7727C87.0627 35.8371 87.2564 35.9657 87.3209 36.0944C87.45 36.2231 87.5791 36.4804 87.8372 36.8664L88.0308 37.1882C88.2244 37.5742 88.4181 37.8959 88.5472 38.0889H87.5791C87.5145 37.8959 87.3855 37.7672 87.3209 37.5742L87.0627 37.1882C86.74 36.6734 86.4819 36.2874 86.2883 36.0944H85.7074V36.0301Z" fill="#BD1E5A"/>
<path d="M180.967 35.3223H181.806C182.129 35.3223 182.386 35.2579 182.58 35.1293C182.774 35.0006 182.903 34.8076 182.903 34.5503C182.903 34.3572 182.839 34.1642 182.645 34.0999C182.516 34.0355 182.193 33.9711 181.806 33.9711H180.902V35.3223H180.967ZM180.967 37.3812H181.741C182.258 37.3812 182.645 37.3168 182.839 37.2525C183.032 37.1882 183.097 36.9951 183.097 36.7377C183.097 36.1587 182.645 35.837 181.806 35.837H180.967V37.3812ZM180.128 38.0245V33.3278H182.193C182.774 33.3278 183.162 33.3921 183.419 33.5851C183.677 33.7781 183.807 34.0355 183.807 34.4216C183.807 35.0006 183.484 35.3866 182.774 35.5796C183.549 35.7727 183.936 36.2231 183.936 36.8021C183.936 37.6385 183.419 38.0245 182.322 38.0245H180.128ZM176.643 37.5098C177.03 37.5098 177.352 37.3812 177.611 37.0594C177.869 36.7377 177.934 36.2874 177.934 35.7084C177.934 35.1293 177.805 34.6789 177.611 34.3572C177.352 34.0355 177.03 33.9068 176.643 33.9068C176.256 33.9068 175.933 34.0355 175.675 34.3572C175.416 34.6789 175.352 35.1293 175.352 35.7084C175.352 36.2874 175.481 36.7377 175.675 37.0594C175.869 37.3168 176.191 37.5098 176.643 37.5098ZM176.643 38.1532C175.933 38.1532 175.416 37.9602 175.029 37.5098C174.642 37.0594 174.449 36.4804 174.449 35.7084C174.449 34.9363 174.642 34.3572 175.029 33.9068C175.416 33.4565 175.997 33.2635 176.643 33.2635C177.352 33.2635 177.869 33.4565 178.256 33.9068C178.643 34.3572 178.837 34.9363 178.837 35.7084C178.837 36.4804 178.643 37.0594 178.256 37.5098C177.869 37.8959 177.288 38.1532 176.643 38.1532ZM170.189 36.8664C170.576 37.3168 170.963 37.5098 171.35 37.5098C171.737 37.5098 171.996 37.3168 172.254 36.9951C172.448 36.6734 172.577 36.2231 172.577 35.5796C172.577 34.4859 172.254 33.9068 171.609 33.9068C171.092 33.9068 170.641 34.2286 170.254 34.8076V36.8664H170.189ZM169.35 39.7617V33.3278H170.189V34.2286C170.576 33.5851 171.092 33.2635 171.737 33.2635C172.254 33.2635 172.706 33.4565 173.028 33.9068C173.351 34.2929 173.481 34.8719 173.481 35.5796C173.481 36.3517 173.287 36.9951 172.9 37.5098C172.513 38.0245 172.06 38.2175 171.48 38.2175C170.963 38.2175 170.512 38.0245 170.189 37.5742V39.826H169.35V39.7617ZM165.413 38.0245V33.9711H163.477V33.3278H168.189V33.9711H166.252V38.0245H165.413ZM158.572 38.0245V33.3278H159.411V35.2579H161.541V33.3278H162.379V38.0245H161.541V35.837H159.411V38.0245H158.572ZM153.99 35.2579H156.249V35.1293C156.249 34.2929 155.862 33.8425 155.152 33.8425C154.829 33.8425 154.506 33.9711 154.312 34.2286C154.118 34.4859 153.99 34.8076 153.99 35.2579ZM157.217 37.8315C156.636 38.0245 156.055 38.1532 155.603 38.1532C154.764 38.1532 154.184 37.9602 153.731 37.5098C153.28 37.1238 153.086 36.4804 153.086 35.7084C153.086 35.0006 153.28 34.3572 153.731 33.9068C154.184 33.4565 154.699 33.1991 155.345 33.1991C155.99 33.1991 156.507 33.3921 156.764 33.7781C157.087 34.1642 157.217 34.8076 157.217 35.5796V35.837H153.99C154.054 36.9307 154.635 37.4455 155.732 37.4455C156.184 37.4455 156.7 37.3168 157.281 37.1238V37.8315H157.217ZM147.729 38.0245V33.3278H148.569V37.3812H150.44V33.3278H151.279V37.3812H152.183V39.1183H151.408V38.0245H147.729Z" fill="#BD1E5A"/>
</svg>
